#!OML:ASF F:\VICON\USERDATA\INSTALL\rory3\rory3.ASF
:FULLY-SPECIFIED
:DEGREES
272
root 0.759708 21.7948 -4.67734 3.49878 -5.88504 -0.337587
lowerback 11.0362 0.68858 -2.0902
upperback 1.12202 0.765119 2.01681
thorax -5.07348 0.439387 3.17644
lowerneck -16.9238 -3.61278 -10.1764
upperneck 27.9847 -3.94542 6.02111
head 12.4075 -2.07351 3.41516
rclavicle 1.20265e-014 8.74653e-015
rhumerus -58.0116 4.36515 -78.2772
rradius 96.8262
rwrist -2.73105
rhand -31.6037 24.9111
rfingers 7.12502
rthumb -4.86606 -5.01298
lclavicle 1.20265e-014 8.74653e-015
lhumerus -60.9629 4.38682 71.6424
lradius 68.0578
lwrist 11.4638
lhand -23.9741 27.6999
lfingers 7.12502
lthumb 2.50236 57.665
rfemur -20.6613 -2.73539 23.2167
rtibia 56.6342
rfoot 25.2903 -6.45025
rtoes 16.4872
lfemur -9.349 -1.3887 -21.7793
ltibia 44.5422
lfoot 28.0237 -6.25978
ltoes -2.04791
273
root 0.749663 21.8557 -4.49512 3.39272 -5.56803 -0.437457
lowerback 11.5805 0.635862 -2.13218
upperback 1.0508 0.69164 2.16498
thorax -5.44944 0.412173 3.36825
lowerneck -16.6033 -3.62658 -10.393
upperneck 28.3348 -3.89206 5.84565
head 12.4805 -2.10602 3.40282
rclavicle -2.24627e-014 -1.11319e-014
rhumerus -57.4276 3.64821 -77.6314
rradius 94.879
rwrist -3.17907
rhand -31.2265 24.6954
rfingers 7.12502
rthumb -4.50185 -5.2368
lclavicle -2.24627e-014 -1.11319e-014
lhumerus -60.1972 4.6146 71.5847
lradius 66.2028
lwrist 11.0476
lhand -23.9445 26.4638
lfingers 7.12502
lthumb 2.53095 56.4285
rfemur -21.4708 -3.10645 23.4962
rtibia 55.9874
rfoot 24.7284 -6.73452
rtoes 15.0736
lfemur -10.3553 -0.887078 -21.4844
ltibia 44.6747
lfoot 26.8561 -5.50771
ltoes -0.898598
274
root 0.7433 21.8838 -4.31809 3.31183 -5.20225 -0.501473
lowerback 11.9744 0.605212 -2.11242
upperback 1.1458 0.652592 2.24778
thorax -5.56687 0.393873 3.45117
lowerneck -16.7496 -3.70724 -10.4127
upperneck 28.5956 -3.92904 5.64092
head 12.6182 -2.15271 3.32608
rclavicle -8.84592e-015 4.37326e-015
rhumerus -56.4329 2.75861 -77.029
rradius 92.6715
rwrist -3.39435
rhand -31.0737 24.4965
rfingers 7.12502
rthumb -4.35427 -5.4387
lclavicle -8.84592e-015 4.37326e-015
lhumerus -59.1091 4.66818 71.7125
lradius 64.5185
lwrist 11.3887
lhand -24.4812 25.7244
lfingers 7.12502
lthumb 2.01265 55.6947
rfemur -22.2772 -3.44495 23.7138
rtibia 55.1805
rfoot 24.5417 -7.7398
rtoes 16.0284
lfemur -11.3432 -0.537116 -21.2525
ltibia 44.6233
lfoot 26.1092 -5.20701
ltoes -0.444128
275
root 0.737741 21.8994 -4.14067 3.24251 -4.82812 -0.630028
lowerback 12.339 0.627135 -1.95259
upperback 1.29795 0.69835 2.26166
thorax -5.61103 0.411302 3.36712
lowerneck -16.7064 -3.78163 -10.2271
upperneck 28.5475 -4.04126 5.47054
head 12.5925 -2.20268 3.20888
rclavicle 4.96962e-016 -2.46493e-014
rhumerus -55.476 1.61069 -76.4852
rradius 90.6033
rwrist -3.67114
rhand -31.1221 24.2955
rfingers 7.12502
rthumb -4.401 -5.6388
lclavicle 4.96962e-016 -2.46493e-014
lhumerus -57.74 4.522 71.8791
lradius 62.9105
lwrist 11.7085
lhand -23.9066 28.0045
lfingers 7.12502
lthumb 2.56757 57.9688
rfemur -23.0391 -3.80212 24.0078
rtibia 54.1744
rfoot 24.4117 -8.277
rtoes 15.9317
lfemur -12.2833 -0.241662 -20.9528
ltibia 44.3392
lfoot 25.354 -5.1325
ltoes -1.34581
276
root 0.731742 21.9082 -3.95578 3.07557 -4.34721 -0.736815
lowerback 12.6677 0.568644 -1.81686
upperback 1.43213 0.637174 2.29814
thorax -5.64642 0.377254 3.3391
lowerneck -16.175 -3.76197 -10.1036
upperneck 28.3688 -4.05702 5.32653
head 12.405 -2.2182 3.12896
rclavicle -1.41137e-014 -1.82882e-014
rhumerus -54.8187 0.805809 -76.0124
rradius 88.7841
rwrist -4.15293
rhand -31.1321 23.6029
rfingers 7.12502
rthumb -4.41069 -6.33113
lclavicle -1.41137e-014 -1.82882e-014
lhumerus -56.3837 4.39283 72.1017
lradius 61.0562
lwrist 12.3901
lhand -23.8792 28.6123
lfingers 7.12502
lthumb 2.59404 58.5763
rfemur -23.5803 -4.23803 24.2589
rtibia 52.9526
rfoot 24.372 -8.07538
rtoes 14.6526
lfemur -13.0253 -0.108753 -20.6897
ltibia 43.765
lfoot 24.8681 -5.11215
ltoes -2.66067
277
root 0.723396 21.9079 -3.76124 2.91152 -3.80325 -0.776699
lowerback 12.835 0.449955 -1.80079
upperback 1.52401 0.484509 2.37398
thorax -5.6317 0.301414 3.43717
lowerneck -15.4296 -3.70417 -10.2163
upperneck 28.1637 -4.02377 5.35361
head 12.1695 -2.21835 3.16478
rclavicle 1.68967e-015 -2.62396e-014
rhumerus -54.2912 0.352847 -75.5502
rradius 86.8844
rwrist -4.76167
rhand -30.6728 23.3656
rfingers 7.12502
rthumb -3.96717 -6.57723
lclavicle 1.68967e-015 -2.62396e-014
lhumerus -55.1469 4.46702 72.2657
lradius 58.7627
lwrist 13.0727
lhand -24.7917 25.7467
lfingers 7.12502
lthumb 1.71273 55.7196
rfemur -23.9765 -4.68023 24.4119
rtibia 51.5298
rfoot 24.19 -7.72207
rtoes 13.3028
lfemur -13.6267 -0.179785 -20.5131
ltibia 42.9167
lfoot 24.4738 -5.2275
ltoes -3.232
